<?xml version="1.0" encoding="UTF-8"?>
<svg width="512" height="512" viewBox="0 0 512 512" fill="none" xmlns="http://www.w3.org/2000/svg">
  <!-- Background Circle -->
  <circle cx="256" cy="256" r="248" fill="#FEF9C3" stroke="#FEF08A" stroke-width="4"/>
  
  <!-- Robot Body -->
  <rect x="156" y="200" width="200" height="180" rx="20" fill="#FBBF24" filter="url(#shadow)"/>
  <rect x="176" y="220" width="160" height="140" rx="10" fill="#FDE68A"/>
  
  <!-- Robot Head -->
  <rect x="186" y="120" width="140" height="100" rx="20" fill="#FBBF24"/>
  <rect x="206" y="140" width="100" height="60" rx="10" fill="#FDE68A"/>
  
  <!-- Robot Eyes -->
  <circle cx="236" cy="170" r="15" fill="#1F2937"/>
  <circle cx="276" cy="170" r="15" fill="#1F2937"/>
  <circle cx="236" cy="170" r="5" fill="#FFFFFF"/>
  <circle cx="276" cy="170" r="5" fill="#FFFFFF"/>
  
  <!-- Robot Antenna -->
  <rect x="246" y="90" width="20" height="30" fill="#FBBF24"/>
  <circle cx="256" cy="80" r="10" fill="#FDE68A"/>
  
  <!-- Robot Arms -->
  <rect x="106" y="240" width="50" height="20" rx="10" fill="#FBBF24"/>
  <rect x="356" y="240" width="50" height="20" rx="10" fill="#FBBF24"/>
  
  <!-- Robot Buttons -->
  <circle cx="216" cy="290" r="10" fill="#1F2937"/>
  <circle cx="256" cy="290" r="10" fill="#1F2937"/>
  <circle cx="296" cy="290" r="10" fill="#1F2937"/>
  
  <!-- Shadow Filter -->
  <defs>
    <filter id="shadow" x="0" y="0" width="100%" height="100%" filterUnits="userSpaceOnUse">
      <feDropShadow dx="0" dy="4" stdDeviation="4" flood-opacity="0.25"/>
    </filter>
  </defs>
</svg>